# xmcd CD database file
#
# Track frame offsets:
#	150
#	5756
#	14974
#	53114
#	67411
#	95341
#	113981
#	131931
#	200326
#	220086
#	232559
#	246014
#	258287
#	267297
#	283628
#
# Disc length: 4012 seconds
#
# Revision: 1
# Processed by: cddbd v1.5.2PL0 Copyright (c) Steve Scherf et al.
# Submitted via: CDex 1.70beta2
#
DISCID=e00faa0f
DTITLE=Various Artist - The Wire - Atlantic Waves 2006 [CD1)
DYEAR=2006
DGENRE=Jazz
TTITLE0=Shlomo - Intro
TTITLE1=Carlos Bica - Hank
TTITLE2=Myeon and Park Je Chun - Iberian Sunset
TTITLE3=Maria Joao and Mario Laginha - Pes No Chao
TTITLE4=Kang Tae Hwan - A Deep Breath
TTITLE5=Ned Rothenberg - Old Country
TTITLE6=Carlos Zingaro and Carlos Santos - CZCS Wave '06
TTITLE7=Arditti Quartet Plays Antonio Pinho Vargas - Monodia - Quasi Un Requiem
TTITLE8=Pedro Carneiro - When The Dusk Was Wet With Dew...
TTITLE9=Americo Rodrigues - Voltar
TTITLE10=Shlomo Ft Dubbledge - Perfect
TTITLE11=Dokaka - Economy Parcel Post
TTITLE12=Tanya Tagao - Qimiruluapik
TTITLE13=Sainkho Namtchylak - Northern Ghosts
TTITLE14=Janita Salome - Paisagem Com Homem
EXTD=YEAR: 2006
EXTT0=
EXTT1=
EXTT2=
EXTT3=
EXTT4=
EXTT5=
EXTT6=
EXTT7=
EXTT8=
EXTT9=
EXTT10=
EXTT11=
EXTT12=
EXTT13=
EXTT14=
PLAYORDER=
